<svg width="135" height="60" viewBox="0 0 135 60" fill="none" xmlns="http://www.w3.org/2000/svg">
<path d="M5.99572 0V15.0512H14.992V18.4612H1.93393V0H5.99572Z" fill="#E50F86"/>
<path d="M25.2865 18.4612V16.5973H25.2057C24.7425 17.373 24.1391 17.9333 23.3957 18.2781C22.6523 18.6228 21.8981 18.7952 21.1224 18.7952C20.142 18.7952 19.3339 18.6659 18.7036 18.4073C18.0734 18.1488 17.5778 17.7825 17.2168 17.3084C16.8559 16.8343 16.6027 16.2579 16.4519 15.5738C16.3064 14.895 16.231 14.1408 16.231 13.3113V5.0907H19.9049V12.6379C19.9049 13.7422 20.0773 14.5664 20.4221 15.1051C20.7669 15.6492 21.381 15.9186 22.2591 15.9186C23.261 15.9186 23.9829 15.6223 24.43 15.0243C24.8771 14.4317 25.1034 13.4513 25.1034 12.0884V5.07994H28.7773V18.4451H25.2865V18.4612Z" fill="#E50F86"/>
<path d="M34.6545 15.1428C34.8161 15.4283 35.0316 15.66 35.2902 15.8431C35.5487 16.0263 35.845 16.1556 36.179 16.2418C36.513 16.328 36.8632 16.3711 37.2241 16.3711C37.4827 16.3711 37.752 16.3387 38.0375 16.2795C38.323 16.2202 38.5816 16.1233 38.8132 15.994C39.0449 15.8647 39.2388 15.6923 39.395 15.4768C39.5513 15.2613 39.6267 14.992 39.6267 14.6634C39.6267 14.1139 39.2604 13.6991 38.5277 13.4244C37.7951 13.1496 36.7716 12.8749 35.4625 12.5948C34.9292 12.4763 34.4067 12.3308 33.9003 12.1692C33.3939 12.0076 32.9414 11.7921 32.5428 11.5228C32.1442 11.2534 31.8263 10.9194 31.5839 10.5154C31.3415 10.1114 31.223 9.61578 31.223 9.0286C31.223 8.16668 31.39 7.46098 31.7294 6.90612C32.0634 6.35665 32.5105 5.92031 33.0599 5.60247C33.6094 5.28464 34.2289 5.05839 34.9238 4.9291C35.6188 4.79981 36.3191 4.73517 37.0463 4.73517C37.7736 4.73517 38.4739 4.80519 39.1526 4.93987C39.8314 5.07993 40.4401 5.31157 40.9734 5.64018C41.5067 5.96878 41.9539 6.40513 42.304 6.94922C42.6596 7.49331 42.8696 8.17745 42.9397 9.00705H39.4489C39.395 8.30135 39.1311 7.82191 38.6463 7.5741C38.1614 7.3263 37.5958 7.19702 36.9386 7.19702C36.7339 7.19702 36.5076 7.2078 36.2652 7.23473C36.0228 7.26167 35.8019 7.31553 35.608 7.40173C35.4087 7.48792 35.2417 7.61182 35.1016 7.77881C34.9616 7.94581 34.8969 8.16129 34.8969 8.43603C34.8969 8.76463 35.0154 9.0286 35.2578 9.23869C35.5003 9.4434 35.8127 9.61578 36.2006 9.74507C36.5884 9.87436 37.0302 9.99287 37.5311 10.0952C38.0321 10.1976 38.5385 10.3107 39.0557 10.4292C39.589 10.5477 40.1115 10.6986 40.6179 10.8656C41.1243 11.0379 41.5768 11.2642 41.9754 11.5497C42.374 11.8352 42.6919 12.1854 42.9343 12.6109C43.1767 13.0311 43.2952 13.5537 43.2952 14.1732C43.2952 15.0512 43.1175 15.7893 42.7673 16.3818C42.4118 16.9744 41.9539 17.4538 41.3828 17.8148C40.8118 18.1757 40.16 18.4343 39.4328 18.5797C38.7001 18.7252 37.9567 18.8006 37.1972 18.8006C36.4376 18.8006 35.6619 18.7252 34.9238 18.5689C34.1858 18.4127 33.5232 18.1541 32.9468 17.7932C32.3704 17.4323 31.8964 16.9529 31.5247 16.3603C31.153 15.7677 30.9536 15.0189 30.9159 14.1247H34.4067C34.4067 14.5233 34.4875 14.8627 34.6491 15.1482L34.6545 15.1428Z" fill="#E50F86"/>
<path d="M48.5422 15.1428C48.7038 15.4283 48.9192 15.66 49.1778 15.8431C49.4364 16.0263 49.7327 16.1556 50.0667 16.2418C50.4007 16.328 50.7508 16.3711 51.1118 16.3711C51.3703 16.3711 51.6397 16.3387 51.9252 16.2795C52.2107 16.2202 52.4693 16.1233 52.7009 15.994C52.9326 15.8647 53.1265 15.6923 53.2827 15.4768C53.4389 15.2613 53.5143 14.992 53.5143 14.6634C53.5143 14.1139 53.148 13.6991 52.4154 13.4244C51.6828 13.1496 50.6592 12.8749 49.3502 12.5948C48.8169 12.4763 48.2944 12.3308 47.788 12.1692C47.2816 12.0076 46.8291 11.7921 46.4305 11.5228C46.0318 11.2534 45.714 10.9194 45.4716 10.5154C45.2292 10.1114 45.1106 9.61578 45.1106 9.0286C45.1106 8.16668 45.2776 7.46098 45.617 6.90612C45.951 6.35665 46.3981 5.92031 46.9476 5.60247C47.4971 5.28464 48.1166 5.05839 48.8115 4.9291C49.5064 4.79981 50.2067 4.73517 50.934 4.73517C51.6612 4.73517 52.3615 4.80519 53.0403 4.93987C53.7191 5.07993 54.3278 5.31157 54.8611 5.64018C55.3944 5.96878 55.8415 6.40513 56.1917 6.94922C56.5472 7.49331 56.7573 8.17745 56.8273 9.00705H53.3366C53.2827 8.30135 53.0187 7.82191 52.5339 7.5741C52.0491 7.3263 51.4835 7.19702 50.8262 7.19702C50.6215 7.19702 50.3953 7.2078 50.1529 7.23473C49.9105 7.26167 49.6896 7.31553 49.4957 7.40173C49.2963 7.48792 49.1293 7.61182 48.9893 7.77881C48.8492 7.94581 48.7846 8.16129 48.7846 8.43603C48.7846 8.76463 48.9031 9.0286 49.1455 9.23869C49.3879 9.4434 49.7004 9.61578 50.0882 9.74507C50.4761 9.87436 50.9178 9.99287 51.4188 10.0952C51.9198 10.1976 52.4262 10.3107 52.9433 10.4292C53.4766 10.5477 53.9992 10.6986 54.5056 10.8656C55.0119 11.0379 55.4644 11.2642 55.8631 11.5497C56.2617 11.8352 56.5795 12.1854 56.822 12.6109C57.0644 13.0311 57.1829 13.5537 57.1829 14.1732C57.1829 15.0512 57.0051 15.7893 56.655 16.3818C56.2994 16.9744 55.8415 17.4538 55.2705 17.8148C54.6995 18.1757 54.0477 18.4343 53.3204 18.5797C52.5878 18.7252 51.8444 18.8006 51.0848 18.8006C50.3252 18.8006 49.5495 18.7252 48.8115 18.5689C48.0735 18.4127 47.4109 18.1541 46.8345 17.7932C46.2581 17.4323 45.784 16.9529 45.4123 16.3603C45.0406 15.7677 44.8413 15.0189 44.8036 14.1247H48.2944C48.2944 14.5233 48.3752 14.8627 48.5368 15.1482L48.5422 15.1428Z" fill="#E50F86"/>
<path d="M59.44 3.02749V0H63.114V3.02749H59.44ZM63.114 5.09609V18.4612H59.44V5.09609H63.114Z" fill="#E50F86"/>
<path d="M69.9339 15.256C70.4834 15.7893 71.2806 16.0586 72.3149 16.0586C73.0584 16.0586 73.694 15.8755 74.2273 15.5038C74.7606 15.132 75.0892 14.7388 75.2131 14.3294H78.4453C77.9282 15.9347 77.1363 17.0768 76.0643 17.7663C74.9977 18.4558 73.7048 18.8006 72.1857 18.8006C71.1352 18.8006 70.1871 18.6336 69.3413 18.2942C68.4956 17.9602 67.7791 17.4808 67.1973 16.8613C66.6155 16.2418 66.1576 15.4984 65.8398 14.6364C65.522 13.7745 65.3604 12.8264 65.3604 11.7921C65.3604 10.7578 65.522 9.86358 65.8506 9.00166C66.1792 8.13974 66.6425 7.39633 67.2458 6.76606C67.8491 6.13578 68.571 5.64018 69.406 5.27925C70.241 4.91832 71.1675 4.73517 72.1857 4.73517C73.3223 4.73517 74.3135 4.95603 75.1593 5.39777C76.005 5.83411 76.6946 6.42668 77.2387 7.17008C77.7827 7.91349 78.1706 8.75925 78.413 9.70736C78.6554 10.6555 78.7416 11.6467 78.6716 12.681H69.0289C69.0828 13.8715 69.3844 14.7334 69.9339 15.2667V15.256ZM74.0819 8.22055C73.6401 7.73572 72.9722 7.49869 72.0779 7.49869C71.4907 7.49869 71.0059 7.59565 70.618 7.79497C70.2302 7.99429 69.9177 8.23671 69.6861 8.533C69.4545 8.82928 69.2875 9.13634 69.1959 9.46494C69.0989 9.79355 69.045 10.0844 69.0289 10.343H75.0031C74.8307 9.41107 74.5236 8.70538 74.0873 8.22593L74.0819 8.22055Z" fill="#E50F86"/>
<path d="M84.3387 5.0961V7.5795H84.3926C84.5649 7.1647 84.7966 6.78222 85.0929 6.42668C85.3891 6.07114 85.7231 5.76947 86.1002 5.52166C86.4773 5.27386 86.8867 5.07993 87.3123 4.93987C87.7433 4.79981 88.1904 4.73517 88.6591 4.73517C88.9015 4.73517 89.1654 4.77826 89.4617 4.86445V8.27981C89.2893 8.24749 89.0846 8.21516 88.8422 8.18822C88.5998 8.16129 88.3682 8.15052 88.1419 8.15052C87.4685 8.15052 86.9029 8.26364 86.4342 8.48451C85.9709 8.71076 85.5939 9.01243 85.3083 9.40029C85.0228 9.78816 84.8235 10.2407 84.6996 10.7578C84.5757 11.275 84.5165 11.8352 84.5165 12.4386V18.4612H80.8425V5.0961H84.3333H84.3387Z" fill="#E50F86"/>
<path d="M11.1403 23.5088L18.0464 41.97H13.8338L12.4386 37.8597H5.53244L4.08334 41.97H0L6.98154 23.5088H11.1457H11.1403ZM11.3719 34.8323L9.04475 28.0554H8.99088L6.58829 34.8323H11.3719Z" fill="#E50F86"/>
<path d="M22.5446 38.7648C23.094 39.2981 23.8913 39.5674 24.9256 39.5674C25.669 39.5674 26.3047 39.3843 26.838 39.0126C27.3713 38.6409 27.6999 38.2476 27.8238 37.8382H31.056C30.5388 39.4435 29.747 40.5856 28.675 41.2751C27.6083 41.9646 26.3155 42.3094 24.7963 42.3094C23.7459 42.3094 22.7977 42.1424 21.952 41.803C21.1062 41.469 20.3898 40.9896 19.808 40.3701C19.2208 39.7506 18.7683 39.0072 18.4504 38.1453C18.1326 37.2833 17.971 36.3352 17.971 35.3009C17.971 34.2666 18.1326 33.3724 18.4612 32.5105C18.7898 31.6486 19.2531 30.9051 19.8565 30.2749C20.4598 29.6446 21.1817 29.149 22.0166 28.7881C22.8516 28.4271 23.7782 28.244 24.7963 28.244C25.933 28.244 26.9242 28.4648 27.7699 28.9066C28.6157 29.3429 29.3052 29.9355 29.8493 30.6789C30.3934 31.4223 30.7813 32.2681 31.0237 33.2162C31.2661 34.1643 31.3523 35.1555 31.2823 36.1898H21.6395C21.6934 37.3803 21.9951 38.2422 22.5446 38.7755V38.7648ZM26.6925 31.7294C26.2508 31.2445 25.5828 31.0075 24.6886 31.0075C24.1014 31.0075 23.6166 31.1045 23.2287 31.3038C22.8408 31.5031 22.5284 31.7455 22.2968 32.0418C22.0651 32.3381 21.8981 32.6452 21.8065 32.9738C21.7096 33.3024 21.6557 33.5933 21.6395 33.8518H27.6137C27.4413 32.9199 27.1343 32.2142 26.6979 31.7347L26.6925 31.7294Z" fill="#E50F86"/>
<path d="M36.5453 38.6463C36.7069 38.9318 36.9224 39.1634 37.181 39.3466C37.4396 39.5297 37.7359 39.659 38.0699 39.7452C38.4038 39.8314 38.754 39.8745 39.1149 39.8745C39.3735 39.8745 39.6429 39.8422 39.9284 39.7829C40.2139 39.7236 40.4724 39.6267 40.7041 39.4974C40.9357 39.3681 41.1297 39.1957 41.2859 38.9802C41.4421 38.7648 41.5175 38.4954 41.5175 38.1668C41.5175 37.6173 41.1512 37.2025 40.4186 36.9278C39.6859 36.6531 38.6624 36.3783 37.3534 36.0982C36.8201 35.9797 36.2975 35.8342 35.7912 35.6726C35.2848 35.511 34.8323 35.2955 34.4336 35.0262C34.035 34.7568 33.7172 34.4229 33.4747 34.0188C33.2323 33.6148 33.1138 33.1192 33.1138 32.532C33.1138 31.6701 33.2808 30.9644 33.6202 30.4095C33.9542 29.8601 34.4013 29.4237 34.9508 29.1059C35.5003 28.7881 36.1198 28.5618 36.8147 28.4325C37.5042 28.3032 38.2099 28.2386 38.9372 28.2386C39.6644 28.2386 40.3647 28.3086 41.0435 28.4433C41.7222 28.5834 42.331 28.815 42.8643 29.1436C43.3976 29.4722 43.8447 29.9086 44.1949 30.4526C44.5504 30.9967 44.7605 31.6809 44.8305 32.5105H41.3398C41.2859 31.8048 41.0219 31.3253 40.5371 31.0775C40.0523 30.8297 39.4866 30.7004 38.8294 30.7004C38.6247 30.7004 38.3985 30.7112 38.156 30.7382C37.9136 30.7651 37.6928 30.819 37.4988 30.9052C37.2995 30.9913 37.1325 31.1152 36.9925 31.2822C36.8524 31.4492 36.7877 31.6647 36.7877 31.9395C36.7877 32.2681 36.9063 32.532 37.1487 32.7421C37.3911 32.9468 37.7035 33.1192 38.0914 33.2485C38.4793 33.3778 38.921 33.4963 39.422 33.5986C39.923 33.701 40.4294 33.8141 40.9465 33.9326C41.4798 34.0512 42.0024 34.202 42.5087 34.369C43.0151 34.5414 43.4676 34.7676 43.8662 35.0531C44.2649 35.3386 44.5827 35.6888 44.8251 36.1144C45.0675 36.5346 45.1861 37.0571 45.1861 37.6766C45.1861 38.5547 45.0083 39.2927 44.6581 39.8853C44.3026 40.4778 43.8447 40.9573 43.2737 41.3182C42.7027 41.6791 42.0508 41.9377 41.3236 42.0832C40.591 42.2286 39.8476 42.304 39.088 42.304C38.3284 42.304 37.5527 42.2286 36.8147 42.0724C36.0713 41.9162 35.4141 41.6576 34.8377 41.2966C34.2613 40.9357 33.7872 40.4563 33.4155 39.8637C33.0438 39.2711 32.8445 38.5224 32.8068 37.6281H36.2975C36.2975 38.0267 36.3783 38.3661 36.5399 38.6516L36.5453 38.6463Z" fill="#E50F86"/>
<path d="M54.6833 28.5995V31.056H51.9952V37.6766C51.9952 38.2961 52.0976 38.7109 52.3077 38.9156C52.5178 39.1203 52.9272 39.228 53.5467 39.228C53.7514 39.228 53.9507 39.2227 54.1393 39.2011C54.3278 39.185 54.511 39.158 54.6833 39.1257V41.97C54.3709 42.0239 54.0261 42.0562 53.649 42.0724C53.272 42.0885 52.9002 42.0993 52.5393 42.0993C51.9683 42.0993 51.4296 42.0616 50.9232 41.9862C50.4168 41.9054 49.9643 41.7599 49.5765 41.5337C49.1886 41.3074 48.8816 40.9896 48.6607 40.5748C48.4344 40.16 48.3267 39.6159 48.3267 38.9479V31.0614H46.1019V28.6049H48.3267V24.597H52.0006V28.6049H54.6887L54.6833 28.5995Z" fill="#E50F86"/>
<path d="M60.1134 23.5088V30.4634H60.1888C60.6521 29.6877 61.2501 29.1221 61.9719 28.7719C62.6938 28.4164 63.4049 28.244 64.0944 28.244C65.0748 28.244 65.8829 28.3786 66.5132 28.6426C67.1434 28.912 67.639 29.2783 68 29.7523C68.3609 30.2264 68.6141 30.8028 68.7649 31.4869C68.9104 32.1657 68.9858 32.9199 68.9858 33.7495V41.97H65.3119V34.4175C65.3119 33.3131 65.1395 32.4889 64.7947 31.9502C64.4499 31.4061 63.8358 31.1368 62.9577 31.1368C61.9558 31.1368 61.2339 31.4331 60.7868 32.031C60.3397 32.6236 60.1134 33.604 60.1134 34.9669V41.9754H56.4395V23.5142H60.1134V23.5088Z" fill="#E50F86"/>
<path d="M75.7033 38.7648C76.2528 39.2981 77.0501 39.5674 78.0844 39.5674C78.8278 39.5674 79.4635 39.3843 79.9968 39.0126C80.5301 38.6409 80.8587 38.2476 80.9826 37.8382H84.2148C83.6976 39.4435 82.9057 40.5856 81.8337 41.2751C80.7671 41.9646 79.4742 42.3094 77.9551 42.3094C76.9046 42.3094 75.9565 42.1424 75.1108 41.803C74.265 41.469 73.5486 40.9896 72.9668 40.3701C72.385 39.7506 71.9271 39.0072 71.6092 38.1453C71.2914 37.2833 71.1298 36.3352 71.1298 35.3009C71.1298 34.2666 71.2914 33.3724 71.62 32.5105C71.9486 31.6486 72.4119 30.9051 73.0152 30.2749C73.6186 29.6446 74.3404 29.149 75.1754 28.7881C76.0104 28.4271 76.937 28.244 77.9551 28.244C79.0918 28.244 80.083 28.4648 80.9287 28.9066C81.7745 29.3429 82.464 29.9355 83.0081 30.6789C83.5522 31.4223 83.94 32.2681 84.1825 33.2162C84.4249 34.1643 84.5111 35.1555 84.441 36.1898H74.7983C74.8522 37.3803 75.1539 38.2422 75.7033 38.7755V38.7648ZM79.8513 31.7294C79.4096 31.2445 78.7416 31.0075 77.8474 31.0075C77.2602 31.0075 76.7754 31.1045 76.3875 31.3038C75.9996 31.5031 75.6872 31.7455 75.4555 32.0418C75.2239 32.3381 75.0569 32.6452 74.9653 32.9738C74.8684 33.3024 74.8145 33.5933 74.7983 33.8518H80.7725C80.6001 32.9199 80.2931 32.2142 79.8567 31.7347L79.8513 31.7294Z" fill="#E50F86"/>
<path d="M93.9545 28.5995V31.056H91.2664V37.6766C91.2664 38.2961 91.3687 38.7109 91.5788 38.9156C91.7889 39.1203 92.1983 39.228 92.8178 39.228C93.0225 39.228 93.2218 39.2227 93.4104 39.2011C93.5989 39.185 93.7821 39.158 93.9545 39.1257V41.97C93.642 42.0239 93.2972 42.0562 92.9202 42.0724C92.5431 42.0885 92.1714 42.0993 91.8104 42.0993C91.2394 42.0993 90.7007 42.0616 90.1943 41.9862C89.688 41.9054 89.2355 41.7599 88.8476 41.5337C88.4597 41.3074 88.1527 40.9896 87.9318 40.5748C87.7056 40.16 87.5978 39.6159 87.5978 38.9479V31.0614H85.373V28.6049H87.5978V24.597H91.2717V28.6049H93.9598L93.9545 28.5995Z" fill="#E50F86"/>
<path d="M95.8184 26.5309V23.5034H99.4923V26.5309H95.8184ZM99.4923 28.5995V41.9646H95.8184V28.5995H99.4923Z" fill="#E50F86"/>
<path d="M108.774 31.0075C108.187 31.0075 107.697 31.1422 107.298 31.4061C106.899 31.6701 106.576 32.0203 106.328 32.4404C106.081 32.8606 105.903 33.3293 105.8 33.8357C105.698 34.342 105.644 34.8484 105.644 35.3494C105.644 35.8504 105.698 36.3245 105.8 36.8254C105.903 37.3264 106.07 37.7789 106.307 38.183C106.538 38.587 106.856 38.921 107.25 39.1796C107.648 39.4381 108.128 39.5674 108.699 39.5674C109.577 39.5674 110.255 39.3196 110.73 38.8294C111.204 38.3392 111.5 37.6766 111.624 36.8524H115.163C114.921 38.6301 114.231 39.9822 113.094 40.9142C111.958 41.8461 110.498 42.3094 108.726 42.3094C107.724 42.3094 106.808 42.1424 105.973 41.803C105.138 41.469 104.427 41.0004 103.84 40.3916C103.252 39.7883 102.795 39.0664 102.471 38.2315C102.143 37.3965 101.981 36.4753 101.981 35.4787C101.981 34.4821 102.132 33.4855 102.434 32.5967C102.735 31.7078 103.177 30.9429 103.764 30.2964C104.351 29.65 105.062 29.1436 105.908 28.7827C106.754 28.4218 107.718 28.2386 108.806 28.2386C109.598 28.2386 110.363 28.3409 111.096 28.551C111.828 28.7557 112.48 29.0736 113.062 29.4938C113.639 29.9139 114.107 30.4419 114.474 31.0721C114.834 31.7024 115.039 32.4458 115.093 33.3077H111.5C111.257 31.7725 110.352 31.0075 108.785 31.0075H108.774Z" fill="#E50F86"/>
<path d="M120.318 38.6463C120.48 38.9318 120.695 39.1634 120.954 39.3466C121.213 39.5297 121.509 39.659 121.843 39.7452C122.177 39.8314 122.527 39.8745 122.888 39.8745C123.147 39.8745 123.416 39.8422 123.701 39.7829C123.987 39.7236 124.246 39.6267 124.477 39.4974C124.709 39.3681 124.903 39.1957 125.059 38.9802C125.215 38.7648 125.291 38.4954 125.291 38.1668C125.291 37.6173 124.924 37.2025 124.192 36.9278C123.459 36.6531 122.435 36.3783 121.126 36.0982C120.593 35.9797 120.071 35.8342 119.564 35.6726C119.058 35.511 118.605 35.2955 118.207 35.0262C117.808 34.7568 117.49 34.4229 117.248 34.0188C117.005 33.6148 116.887 33.1192 116.887 32.532C116.887 31.6701 117.054 30.9644 117.393 30.4095C117.727 29.8601 118.174 29.4237 118.724 29.1059C119.273 28.7881 119.893 28.5618 120.588 28.4325C121.277 28.3032 121.983 28.2386 122.71 28.2386C123.437 28.2386 124.138 28.3086 124.817 28.4433C125.495 28.5834 126.104 28.815 126.637 29.1436C127.171 29.4722 127.618 29.9086 127.968 30.4526C128.323 30.9967 128.534 31.6809 128.604 32.5105H125.113C125.059 31.8048 124.795 31.3253 124.31 31.0775C123.825 30.8297 123.26 30.7004 122.602 30.7004C122.398 30.7004 122.172 30.7112 121.929 30.7382C121.687 30.7651 121.466 30.819 121.272 30.9052C121.073 30.9913 120.906 31.1152 120.766 31.2822C120.625 31.4492 120.561 31.6647 120.561 31.9395C120.561 32.2681 120.679 32.532 120.922 32.7421C121.164 32.9468 121.477 33.1192 121.864 33.2485C122.252 33.3778 122.694 33.4963 123.195 33.5986C123.696 33.701 124.202 33.8141 124.72 33.9326C125.253 34.0512 125.775 34.202 126.282 34.369C126.788 34.5414 127.241 34.7676 127.639 35.0531C128.038 35.3386 128.356 35.6888 128.598 36.1144C128.841 36.5346 128.959 37.0571 128.959 37.6766C128.959 38.5547 128.781 39.2927 128.431 39.8853C128.076 40.4778 127.618 40.9573 127.047 41.3182C126.476 41.6791 125.824 41.9377 125.097 42.0832C124.364 42.2286 123.621 42.304 122.861 42.304C122.101 42.304 121.326 42.2286 120.588 42.0724C119.844 41.9162 119.187 41.6576 118.611 41.2966C118.034 40.9357 117.56 40.4563 117.189 39.8637C116.817 39.2711 116.618 38.5224 116.58 37.6281H120.071C120.071 38.0267 120.151 38.3661 120.313 38.6516L120.318 38.6463Z" fill="#E50F86"/>
<path d="M0.942723 53.1262L4.47659 58.5725H4.49814V53.1262H5.34389V59.8384H4.36885L0.861918 54.4514H0.845757V59.8384H0V53.1262H0.94811H0.942723Z" fill="#E50F86"/>
<path d="M6.6637 55.1571C6.79838 54.7369 6.9977 54.3598 7.27243 54.0366C7.54178 53.708 7.87578 53.4494 8.2798 53.2555C8.67844 53.0616 9.14711 52.9646 9.68042 52.9646C10.2137 52.9646 10.6824 53.0616 11.081 53.2555C11.4851 53.4494 11.8191 53.708 12.0884 54.0366C12.3578 54.3598 12.5625 54.7369 12.6971 55.1571C12.8318 55.5827 12.9018 56.019 12.9018 56.4769C12.9018 56.9348 12.8318 57.3765 12.6971 57.7967C12.5625 58.2169 12.3631 58.594 12.0884 58.9172C11.8191 59.2458 11.4851 59.5044 11.081 59.6929C10.6824 59.8869 10.2137 59.9784 9.68042 59.9784C9.14711 59.9784 8.67844 59.8815 8.2798 59.6929C7.87578 59.5044 7.54178 59.2458 7.27243 58.9172C7.00308 58.594 6.79838 58.2169 6.6637 57.7967C6.52903 57.3712 6.46439 56.9348 6.46439 56.4769C6.46439 56.019 6.52903 55.5773 6.6637 55.1571ZM7.48791 57.4789C7.57411 57.8075 7.71417 58.1038 7.90271 58.3677C8.09126 58.6317 8.33367 58.8418 8.62457 59.0034C8.92085 59.165 9.27101 59.2458 9.67503 59.2458C10.0791 59.2458 10.4346 59.165 10.7255 59.0034C11.0218 58.8418 11.2588 58.6317 11.4473 58.3677C11.6359 58.1038 11.776 57.8075 11.8621 57.4789C11.9483 57.1503 11.9968 56.8163 11.9968 56.4769C11.9968 56.1375 11.9537 55.8035 11.8621 55.4749C11.7706 55.1463 11.6359 54.85 11.4473 54.5861C11.2588 54.3221 11.0164 54.112 10.7255 53.9504C10.4292 53.7888 10.0791 53.708 9.67503 53.708C9.27101 53.708 8.91547 53.7888 8.62457 53.9504C8.32828 54.112 8.08587 54.3221 7.90271 54.5861C7.71417 54.85 7.57411 55.1463 7.48791 55.4749C7.40172 55.8035 7.35324 56.1375 7.35324 56.4769C7.35324 56.8163 7.39634 57.1503 7.48791 57.4789Z" fill="#E50F86"/>
<path d="M14.9705 53.1262L18.5043 58.5725H18.5259V53.1262H19.3716V59.8384H18.3966L14.8897 54.4514H14.8735V59.8384H14.0277V53.1262H14.9758H14.9705Z" fill="#E50F86"/>
<path d="M23.3203 56.8486V57.6028H20.6052V56.8486H23.3203Z" fill="#E50F86"/>
<path d="M27.9316 54.042C27.6353 53.8265 27.2528 53.7188 26.7895 53.7188C26.601 53.7188 26.4178 53.7403 26.2346 53.7726C26.0515 53.8103 25.8899 53.875 25.7498 53.9612C25.6098 54.0474 25.4966 54.1659 25.4104 54.3167C25.3242 54.4622 25.2812 54.6453 25.2812 54.8662C25.2812 55.0709 25.3404 55.2379 25.4643 55.3672C25.5882 55.4965 25.7498 55.5988 25.9545 55.6796C26.1592 55.7604 26.3855 55.8305 26.6441 55.879C26.9026 55.9328 27.1612 55.9921 27.4306 56.0513C27.6999 56.116 27.9585 56.186 28.2171 56.2722C28.4756 56.3584 28.7019 56.4715 28.9066 56.617C29.1113 56.7624 29.2729 56.9456 29.3968 57.1611C29.5207 57.3819 29.58 57.6567 29.58 57.9906C29.58 58.3462 29.4992 58.6533 29.3429 58.9064C29.1813 59.1596 28.9766 59.3643 28.7288 59.5259C28.4756 59.6875 28.1955 59.8007 27.8885 59.8707C27.576 59.9407 27.2689 59.9784 26.9619 59.9784C26.5848 59.9784 26.2293 59.93 25.8953 59.8384C25.5613 59.7468 25.265 59.6014 25.0118 59.4128C24.7586 59.2189 24.5593 58.9765 24.4085 58.6802C24.2576 58.3839 24.1876 58.0284 24.1876 57.6243H25.0333C25.0333 57.9045 25.0872 58.1469 25.2003 58.3516C25.3081 58.5563 25.4535 58.7233 25.6313 58.8526C25.8091 58.9819 26.0192 59.0788 26.2562 59.1435C26.4932 59.2081 26.741 59.2404 26.9888 59.2404C27.1881 59.2404 27.3929 59.2189 27.5976 59.1866C27.8023 59.1488 27.9854 59.0842 28.147 58.9926C28.3086 58.9011 28.4433 58.7772 28.5403 58.6209C28.6372 58.4647 28.6911 58.2654 28.6911 58.0176C28.6911 57.7698 28.6319 57.5974 28.508 57.452C28.3841 57.3065 28.2224 57.188 28.0177 57.0964C27.813 57.0048 27.5814 56.9294 27.3282 56.8755C27.075 56.8217 26.8111 56.7624 26.5417 56.7032C26.2777 56.6439 26.0138 56.5739 25.7552 56.4985C25.4966 56.4176 25.2704 56.3153 25.0657 56.186C24.861 56.0567 24.6994 55.8897 24.5755 55.685C24.4516 55.4803 24.3923 55.2271 24.3923 54.9201C24.3923 54.5807 24.4623 54.2898 24.597 54.042C24.7371 53.7942 24.9202 53.5895 25.1465 53.4333C25.3727 53.2716 25.6367 53.1531 25.9276 53.0777C26.2185 52.9969 26.5202 52.9592 26.8272 52.9592C27.172 52.9592 27.4898 53.0023 27.7861 53.0831C28.0824 53.1639 28.341 53.2932 28.5618 53.471C28.7827 53.6434 28.9605 53.8696 29.0898 54.1336C29.219 54.3975 29.2891 54.7154 29.2998 55.0871H28.4541C28.4056 54.6022 28.2278 54.2575 27.9316 54.0366V54.042Z" fill="#E50F86"/>
<path d="M35.3818 59.3428C34.9239 59.7737 34.272 59.9838 33.4263 59.9838C32.5805 59.9838 31.8856 59.7791 31.4008 59.3697C30.9159 58.9603 30.6735 58.3085 30.6735 57.4089V53.1208H31.5678V57.4089C31.5678 58.0122 31.7294 58.4647 32.0472 58.7772C32.365 59.0896 32.8283 59.2404 33.4317 59.2404C34.0027 59.2404 34.4336 59.0842 34.7353 58.7772C35.037 58.4701 35.1824 58.0122 35.1824 57.4089V53.1208H36.0767V57.4089C36.0767 58.2654 35.8504 58.9118 35.3925 59.3428H35.3818Z" fill="#E50F86"/>
<path d="M40.7041 53.1262C41.3451 53.1262 41.8407 53.2824 42.2017 53.5949C42.5626 53.9073 42.7404 54.3383 42.7404 54.8824C42.7404 55.2918 42.6488 55.6473 42.4656 55.9544C42.2825 56.2614 41.9862 56.4715 41.5768 56.5847V56.6008C41.7707 56.6385 41.9323 56.7032 42.0508 56.7894C42.1747 56.8756 42.2717 56.9833 42.3417 57.1018C42.4118 57.2203 42.4656 57.3604 42.5033 57.5112C42.5411 57.662 42.5626 57.8183 42.5842 57.9799C42.5949 58.1415 42.6057 58.3085 42.6111 58.4809C42.6165 58.6479 42.6326 58.8149 42.6596 58.9819C42.6865 59.1435 42.7188 59.2997 42.7673 59.4451C42.8158 59.5906 42.8858 59.7199 42.9774 59.833H41.9808C41.9162 59.763 41.8731 59.6714 41.8515 59.5529C41.83 59.4344 41.8138 59.2997 41.8084 59.1542C41.803 59.0088 41.7977 58.8472 41.7869 58.6802C41.7815 58.5132 41.7599 58.3462 41.733 58.1792C41.7061 58.0176 41.6791 57.8614 41.6414 57.7159C41.6037 57.5705 41.5445 57.4412 41.4637 57.3281C41.3829 57.2203 41.2751 57.1287 41.1458 57.0641C41.0112 56.9994 40.8388 56.9671 40.6179 56.9671H38.4362V59.833H37.5419V53.1208H40.6987L40.7041 53.1262ZM40.8926 56.1699C41.0812 56.1375 41.2482 56.0783 41.3882 55.9867C41.5283 55.8951 41.6414 55.7766 41.7276 55.6204C41.8138 55.4695 41.8569 55.2648 41.8569 55.0224C41.8569 54.683 41.7653 54.4083 41.5768 54.1928C41.3882 53.9773 41.0866 53.875 40.6664 53.875H38.4469V56.2129H40.3108C40.5155 56.2129 40.7149 56.1968 40.9034 56.1645L40.8926 56.1699Z" fill="#E50F86"/>
<path d="M48.0735 59.7576C47.6856 59.9138 47.2924 59.9892 46.8991 59.9892C46.3981 59.9892 45.951 59.8976 45.5524 59.7145C45.1591 59.5313 44.8251 59.2835 44.545 58.9657C44.2703 58.6532 44.0602 58.2923 43.9147 57.8829C43.7693 57.4735 43.6992 57.0533 43.6992 56.6116C43.6992 56.1214 43.7639 55.6581 43.8986 55.2164C44.0332 54.7746 44.2326 54.3868 44.5019 54.0528C44.7713 53.7188 45.0999 53.4548 45.4985 53.2609C45.8971 53.0616 46.3604 52.9646 46.8937 52.9646C47.2547 52.9646 47.5994 53.0077 47.9226 53.0939C48.2459 53.1801 48.5314 53.3094 48.79 53.4925C49.0431 53.6757 49.2586 53.9073 49.431 54.1821C49.6034 54.4622 49.7219 54.7962 49.7865 55.1948H48.8923C48.8492 54.9362 48.7684 54.7154 48.6499 54.5322C48.5314 54.3491 48.3859 54.1982 48.2082 54.0743C48.0358 53.9558 47.8365 53.8642 47.6102 53.805C47.3893 53.7457 47.1523 53.7134 46.8991 53.7134C46.4897 53.7134 46.1449 53.7942 45.8487 53.9558C45.5578 54.1174 45.3207 54.3329 45.1322 54.5969C44.949 54.8662 44.809 55.1679 44.7228 55.5073C44.6366 55.8466 44.5935 56.1968 44.5935 56.5577C44.5935 56.9186 44.642 57.2473 44.7443 57.5705C44.8467 57.8937 44.9921 58.1792 45.1861 58.427C45.38 58.6748 45.6224 58.8741 45.9079 59.0196C46.1934 59.165 46.522 59.2404 46.8991 59.2404C47.2493 59.2404 47.5617 59.1866 47.8311 59.0734C48.1004 58.9603 48.3267 58.8041 48.5152 58.6102C48.6984 58.4108 48.8384 58.1792 48.9354 57.9152C49.0324 57.6459 49.0701 57.3604 49.0593 57.0533H46.9153V56.2991H49.8566V59.833H49.2909L49.0539 58.998C48.79 59.3482 48.4667 59.6014 48.0789 59.7522L48.0735 59.7576Z" fill="#E50F86"/>
<path d="M52.146 53.1262V59.8384H51.2518V53.1262H52.146Z" fill="#E50F86"/>
<path d="M57.7539 54.0743C57.4091 53.8373 57.0051 53.7188 56.5364 53.7188C56.1324 53.7188 55.793 53.7942 55.5075 53.945C55.222 54.0959 54.985 54.3006 54.8018 54.5538C54.6187 54.8069 54.4786 55.0978 54.3924 55.4264C54.3062 55.755 54.2631 56.089 54.2631 56.4392C54.2631 56.8217 54.3062 57.1826 54.3924 57.5274C54.4786 57.8721 54.6187 58.1684 54.8018 58.4216C54.985 58.6748 55.222 58.8795 55.5129 59.0303C55.7984 59.1812 56.1486 59.2566 56.5472 59.2566C56.8435 59.2566 57.1021 59.2081 57.3337 59.1111C57.56 59.0142 57.7593 58.8795 57.9263 58.7071C58.0933 58.5347 58.2226 58.33 58.3141 58.093C58.4111 57.856 58.465 57.5974 58.4811 57.3227H59.3754C59.2892 58.1684 58.9983 58.8256 58.5027 59.2943C58.0071 59.763 57.3337 60 56.4718 60C55.9493 60 55.4968 59.9084 55.1089 59.7306C54.721 59.5529 54.3978 59.3051 54.1392 58.9926C53.8807 58.6802 53.6867 58.3085 53.5628 57.8829C53.4335 57.4573 53.3689 56.9994 53.3689 56.5092C53.3689 56.019 53.4389 55.5611 53.5736 55.1302C53.7083 54.6992 53.913 54.3275 54.1823 54.0043C54.4517 53.6864 54.7803 53.4333 55.1789 53.2501C55.5776 53.0669 56.0355 52.9754 56.5472 52.9754C56.8974 52.9754 57.2314 53.0238 57.5438 53.1154C57.8563 53.2124 58.1364 53.3471 58.3788 53.5302C58.6212 53.7134 58.8259 53.9396 58.9875 54.2144C59.1491 54.4891 59.2569 54.8015 59.3054 55.1571H58.4111C58.3088 54.683 58.0879 54.3221 57.7485 54.0851L57.7539 54.0743Z" fill="#E50F86"/>
<path d="M63.3456 53.1262L65.969 59.8384H64.9832L64.2506 57.8183H61.4116L60.6575 59.8384H59.7471L62.3598 53.1262H63.3456ZM63.9651 57.0641L62.8446 53.9343H62.823L61.6864 57.0641H63.9597H63.9651Z" fill="#E50F86"/>
<path d="M67.569 53.1262V59.0896H71.1244V59.8438H66.6747V53.1316H67.569V53.1262Z" fill="#E50F86"/>
<path d="M73.1445 53.875V53.1208H78.5154V53.875H76.2798V59.833H75.3855V53.875H73.1499H73.1445Z" fill="#E50F86"/>
<path d="M82.4586 53.1262C83.0997 53.1262 83.5953 53.2824 83.9562 53.5949C84.3172 53.9073 84.4949 54.3383 84.4949 54.8824C84.4949 55.2918 84.4034 55.6473 84.2202 55.9544C84.037 56.2614 83.7407 56.4715 83.3313 56.5847V56.6008C83.5253 56.6385 83.6869 56.7032 83.8054 56.7894C83.9293 56.8756 84.0263 56.9833 84.0963 57.1018C84.1663 57.2203 84.2202 57.3604 84.2579 57.5112C84.2956 57.662 84.3172 57.8183 84.3387 57.9799C84.3495 58.1415 84.3602 58.3085 84.3656 58.4809C84.371 58.6479 84.3872 58.8149 84.4141 58.9819C84.4411 59.1435 84.4734 59.2997 84.5219 59.4451C84.5703 59.5906 84.6404 59.7199 84.732 59.833H83.7354C83.6707 59.763 83.6276 59.6714 83.6061 59.5529C83.5845 59.4344 83.5684 59.2997 83.563 59.1542C83.5576 59.0088 83.5522 58.8472 83.5414 58.6802C83.536 58.5132 83.5145 58.3462 83.4876 58.1792C83.4606 58.0176 83.4337 57.8614 83.396 57.7159C83.3583 57.5705 83.299 57.4412 83.2182 57.3281C83.1374 57.2203 83.0297 57.1287 82.9004 57.0641C82.7657 56.9994 82.5933 56.9671 82.3725 56.9671H80.1907V59.833H79.2965V53.1208H82.4533L82.4586 53.1262ZM82.6472 56.1699C82.8357 56.1375 83.0027 56.0783 83.1428 55.9867C83.2829 55.8951 83.396 55.7766 83.4822 55.6204C83.5684 55.4695 83.6115 55.2648 83.6115 55.0224C83.6115 54.683 83.5199 54.4083 83.3313 54.1928C83.1428 53.9773 82.8411 53.875 82.4209 53.875H80.2015V56.2129H82.0654C82.2701 56.2129 82.4694 56.1968 82.658 56.1645L82.6472 56.1699Z" fill="#E50F86"/>
<path d="M90.4206 53.1262V53.8804H86.6767V56.0136H90.1674V56.7678H86.6767V59.0896H90.4475V59.8438H85.7824V53.1316H90.4152L90.4206 53.1262Z" fill="#E50F86"/>
<path d="M94.4393 53.1262L97.0628 59.8384H96.0769L95.3443 57.8183H92.5054L91.7512 59.8384H90.8408L93.4535 53.1262H94.4393ZM95.0588 57.0641L93.9383 53.9343H93.9168L92.7801 57.0641H95.0534H95.0588Z" fill="#E50F86"/>
<path d="M96.2332 53.875V53.1208H101.604V53.875H99.3684V59.833H98.4741V53.875H96.2385H96.2332Z" fill="#E50F86"/>
<path d="M103.678 53.1262L105.795 58.7664L107.923 53.1262H109.146V59.8384H108.3V54.2521H108.278L106.183 59.8384H105.423L103.328 54.2521H103.306V59.8384H102.461V53.1262H103.683H103.678Z" fill="#E50F86"/>
<path d="M115.308 53.1262V53.8804H111.565V56.0136H115.055V56.7678H111.565V59.0896H115.335V59.8438H110.67V53.1316H115.303L115.308 53.1262Z" fill="#E50F86"/>
<path d="M117.409 53.1262L120.943 58.5725H120.965V53.1262H121.811V59.8384H120.836L117.329 54.4514H117.312V59.8384H116.467V53.1262H117.415H117.409Z" fill="#E50F86"/>
<path d="M122.586 53.875V53.1208H127.957V53.875H125.722V59.833H124.827V53.875H122.592H122.586Z" fill="#E50F86"/>
<path d="M132.111 54.042C131.814 53.8265 131.432 53.7188 130.968 53.7188C130.78 53.7188 130.597 53.7403 130.414 53.7726C130.23 53.8103 130.069 53.875 129.929 53.9612C129.789 54.0474 129.676 54.1659 129.589 54.3167C129.503 54.4622 129.46 54.6453 129.46 54.8662C129.46 55.0709 129.519 55.2379 129.643 55.3672C129.767 55.4965 129.929 55.5988 130.133 55.6796C130.338 55.7604 130.564 55.8305 130.823 55.879C131.082 55.9328 131.34 55.9921 131.61 56.0513C131.879 56.116 132.137 56.186 132.396 56.2722C132.655 56.3584 132.881 56.4715 133.086 56.617C133.29 56.7624 133.452 56.9456 133.576 57.1611C133.7 57.3819 133.759 57.6567 133.759 57.9906C133.759 58.3462 133.678 58.6533 133.522 58.9064C133.36 59.1596 133.156 59.3643 132.908 59.5259C132.655 59.6875 132.374 59.8007 132.067 59.8707C131.755 59.9407 131.448 59.9784 131.141 59.9784C130.764 59.9784 130.408 59.93 130.074 59.8384C129.74 59.7468 129.444 59.6014 129.191 59.4128C128.938 59.2189 128.738 58.9765 128.587 58.6802C128.442 58.3839 128.367 58.0284 128.367 57.6243H129.212C129.212 57.9045 129.266 58.1469 129.379 58.3516C129.487 58.5563 129.633 58.7233 129.81 58.8526C129.988 58.9819 130.198 59.0788 130.435 59.1435C130.672 59.2081 130.92 59.2404 131.168 59.2404C131.367 59.2404 131.572 59.2189 131.777 59.1866C131.981 59.1488 132.164 59.0842 132.326 58.9926C132.488 58.9011 132.622 58.7772 132.719 58.6209C132.816 58.4647 132.87 58.2654 132.87 58.0176C132.87 57.7698 132.811 57.5974 132.687 57.452C132.563 57.3065 132.401 57.188 132.197 57.0964C131.992 57.0048 131.76 56.9294 131.507 56.8755C131.249 56.8217 130.99 56.7624 130.721 56.7032C130.457 56.6439 130.193 56.5739 129.934 56.4985C129.676 56.4176 129.449 56.3153 129.245 56.186C129.04 56.0567 128.878 55.8897 128.754 55.685C128.631 55.4803 128.571 55.2271 128.571 54.9201C128.571 54.5807 128.641 54.2898 128.776 54.042C128.916 53.7942 129.099 53.5895 129.325 53.4333C129.552 53.2716 129.816 53.1531 130.107 53.0777C130.397 52.9969 130.699 52.9592 131.006 52.9592C131.351 52.9592 131.669 53.0023 131.965 53.0831C132.261 53.1639 132.52 53.2932 132.741 53.471C132.962 53.6434 133.139 53.8696 133.269 54.1336C133.398 54.3975 133.468 54.7154 133.479 55.0871H132.633C132.585 54.6022 132.407 54.2575 132.111 54.0366V54.042Z" fill="#E50F86"/>
</svg>
