<svg width="194" height="65" viewBox="0 0 194 65" fill="none" xmlns="http://www.w3.org/2000/svg">
<g clip-path="url(#clip0_7_314)">
<path d="M57.8145 56.3579C58.1838 56.3579 58.5292 56.3985 58.8584 56.4712C59.1874 56.5519 59.4925 56.6648 59.7734 56.81C60.0545 56.9635 60.2959 57.1417 60.5127 57.3598L60.1836 58.0952C59.8385 57.7803 59.477 57.5541 59.0918 57.4087C58.7064 57.2633 58.2804 57.1987 57.8066 57.1987C57.4052 57.1987 57.052 57.2631 56.7549 57.3843C56.4578 57.5054 56.2331 57.6832 56.0645 57.9175C55.8959 58.1517 55.8155 58.426 55.8154 58.7329C55.8154 59.1045 55.9276 59.3956 56.1523 59.6138C56.3772 59.8319 56.7468 59.9853 57.2607 60.0903L58.457 60.3413C59.2278 60.5029 59.7984 60.7445 60.1758 61.0757C60.5451 61.3987 60.7294 61.8434 60.7295 62.4087C60.7295 62.853 60.6091 63.2576 60.3682 63.605C60.1273 63.9523 59.7817 64.2265 59.332 64.4204C58.8824 64.6143 58.3524 64.7114 57.7422 64.7114L57.7588 64.6958C57.3414 64.6958 56.9396 64.6552 56.5703 64.5825C56.2009 64.5017 55.8549 64.3969 55.5498 64.2514C55.2447 64.1061 54.9559 63.9361 54.707 63.7261L55.0361 62.9663C55.2931 63.1602 55.5581 63.3221 55.8311 63.4595C56.1041 63.5968 56.3936 63.6937 56.7148 63.7583C57.0358 63.8229 57.3809 63.8549 57.75 63.855C58.4406 63.855 58.9469 63.7258 59.2842 63.4673C59.6133 63.2088 59.7822 62.8696 59.7822 62.4497C59.7822 62.2235 59.7333 62.037 59.6289 61.8755C59.5245 61.7141 59.3557 61.5773 59.123 61.4643C58.8902 61.3513 58.5853 61.2541 58.208 61.1733L57.0117 60.9311C56.289 60.7776 55.7588 60.5268 55.3975 60.1714C55.0442 59.824 54.8672 59.3549 54.8672 58.7651C54.8673 58.2806 54.9885 57.861 55.2373 57.4975C55.4862 57.134 55.8316 56.8587 56.2812 56.6567C56.7308 56.4549 57.2365 56.3579 57.8145 56.3579ZM169.005 56.3579C169.374 56.3579 169.72 56.3985 170.049 56.4712C170.378 56.5519 170.683 56.6648 170.964 56.81C171.245 56.9635 171.486 57.1417 171.703 57.3598L171.374 58.0952C171.029 57.7803 170.667 57.5541 170.282 57.4087C169.897 57.2633 169.471 57.1987 168.997 57.1987C168.596 57.1987 168.242 57.2631 167.945 57.3843C167.648 57.5054 167.424 57.6832 167.255 57.9175C167.086 58.1517 167.006 58.426 167.006 58.7329C167.006 59.1045 167.118 59.3956 167.343 59.6138C167.568 59.8319 167.937 59.9853 168.451 60.0903L169.647 60.3413C170.418 60.5029 170.989 60.7445 171.366 61.0757C171.735 61.3987 171.92 61.8434 171.92 62.4087C171.92 62.853 171.799 63.2576 171.559 63.605C171.318 63.9523 170.972 64.2265 170.522 64.4204C170.073 64.6143 169.543 64.7114 168.933 64.7114L168.949 64.6958C168.532 64.6958 168.13 64.6552 167.761 64.5825C167.391 64.5017 167.045 64.3969 166.74 64.2514C166.435 64.1061 166.146 63.9361 165.897 63.7261L166.227 62.9663C166.483 63.1602 166.748 63.3221 167.021 63.4595C167.295 63.5968 167.584 63.6937 167.905 63.7583C168.226 63.8229 168.571 63.8549 168.94 63.855C169.631 63.855 170.137 63.7258 170.475 63.4673C170.804 63.2088 170.973 62.8696 170.973 62.4497C170.973 62.2235 170.924 62.037 170.819 61.8755C170.715 61.7141 170.546 61.5773 170.313 61.4643C170.081 61.3513 169.776 61.2541 169.398 61.1733L168.202 60.9311C167.479 60.7776 166.949 60.5268 166.588 60.1714C166.235 59.824 166.058 59.3549 166.058 58.7651C166.058 58.2806 166.179 57.861 166.428 57.4975C166.677 57.134 167.022 56.8587 167.472 56.6567C167.921 56.4549 168.427 56.3579 169.005 56.3579ZM152.929 56.3423C153.491 56.3423 154.005 56.4311 154.479 56.6089C154.952 56.7866 155.354 57.045 155.675 57.3843L155.306 58.1597C154.952 57.8285 154.591 57.5863 154.214 57.4409C153.836 57.2874 153.419 57.2143 152.961 57.2143C152.054 57.2143 151.355 57.505 150.873 58.0786C150.391 58.6521 150.15 59.4682 150.15 60.5102C150.15 61.5524 150.391 62.369 150.873 62.9507C151.355 63.5322 152.054 63.8227 152.961 63.8227C153.419 63.8227 153.836 63.7497 154.214 63.5962C154.591 63.4427 154.961 63.2085 155.306 62.8774L155.675 63.6528C155.354 63.984 154.952 64.2427 154.479 64.4204C154.005 64.5981 153.491 64.6958 152.929 64.6958C152.134 64.6958 151.452 64.5252 150.89 64.186C150.328 63.8467 149.885 63.3708 149.588 62.7407C149.283 62.1186 149.139 61.3747 149.139 60.5102C149.139 59.6459 149.291 58.9106 149.588 58.2886C149.893 57.6665 150.328 57.1904 150.89 56.8511C151.46 56.5118 152.134 56.3423 152.929 56.3423ZM44.3896 57.2544H40.2061V60.0747H44.1484V60.8745H40.2061V63.8071H44.3896V64.6069H39.2822V56.4546H44.3896V57.2544ZM110.476 57.2544H106.292V60.0747H110.234V60.8745H106.292V63.8071H110.476V64.6069H105.368V56.4546H110.476V57.2544ZM28.8916 64.5903H27.9199L27.0283 62.5141H22.8223L21.9375 64.5903H20.958L24.5234 56.4546H25.3262L28.8916 64.5903ZM77.2471 57.271H74.3086V64.5903H73.3604V57.271H70.4219V56.4546H77.2471V57.271ZM88.4014 60.0581H93.251V56.4546H94.1914V64.5903H93.251V60.8745H88.4014V64.5903H87.4619V56.4546H88.4014V60.0581ZM127.104 57.271H124.166V64.5903H123.218V57.271H120.279V56.4546H127.104V57.271ZM138.258 64.5903H137.318V56.4546H138.258V64.5903ZM23.1621 61.7143H26.7041L24.9492 57.562H24.917L23.1621 61.7143ZM120.721 26.5698C116.842 4.92661 142.555 -8.79987 157.892 6.50145C158.245 6.85699 159.763 8.5296 159.907 8.86082C159.995 9.06261 160.06 9.19217 159.907 9.39403L130.1 39.3667C138.483 46.3467 150.833 44.7064 158.092 36.9106C158.365 36.6198 159.562 34.6563 159.987 35.0845V35.0923C160.276 35.375 158.646 37.2501 158.365 37.5571C146.385 50.5717 123.853 44.0359 120.721 26.5698ZM84.9404 42.978C88.6502 36.62 99.7473 35.8356 105.513 39.6811L105.521 39.6899C106.171 40.1267 109.808 43.3007 109.086 44.0278C107.608 44.3671 107.48 42.6866 106.645 41.6606C101.947 35.8683 90.569 36.9911 86.2891 42.8804C85.7591 43.6074 85.9114 44.2136 84.8916 44.0278C84.2657 43.9146 84.7477 43.3012 84.9404 42.978ZM66.6396 37.3306C71.4415 36.7812 77.6406 38.4456 80.4189 42.687C80.7241 43.1474 81.4067 43.8583 80.54 44.02C79.392 44.23 79.6401 43.4788 79.2148 42.8003C74.9992 36.0141 63.4839 36.5144 58.5215 42.2827C57.9755 42.921 57.6139 44.2945 56.6504 43.9956C55.9524 43.7853 56.9242 42.6783 57.165 42.3794C59.2528 39.7621 63.3315 37.7022 66.6396 37.3306ZM178.561 0.475082C184.27 0.475284 188.895 7.13186 188.413 12.5688C188.02 16.9313 183.515 22.5218 178.922 22.522H175.573L178.817 24.4526C183.547 29.0252 185.666 36.6034 189.553 41.7173C189.938 42.2261 190.452 42.6945 191.03 42.9692C191.608 43.2439 192.58 43.3091 192.966 43.5757C193.191 43.7291 193.166 43.7853 192.966 43.9468C190.083 44.181 187.971 42.3717 186.478 40.0854C183.691 35.8118 181.523 30.6334 178.688 26.4243C177.54 24.7197 174.891 22.5464 172.763 22.5464H165.608V44.0444H163.979V0.475082H178.561ZM51.4551 32.645C51.4548 33.8409 50.0499 36.9351 49.3594 38.0014C43.9551 46.3383 31.4204 45.9743 26.6025 37.2251C26.1206 36.344 25.0049 33.5409 25.0049 32.6362V0.475082L26.5225 0.49852L26.8115 0.927231V31.7241C28.458 46.5322 49.36 46.249 50.9258 31.5376L50.9482 0.77684L51.4551 0.475082V32.645ZM115.783 44.0278H113.96V0.466293H115.783V44.0278ZM0 0.749496C0.385398 0.31328 1.42091 0.313363 1.81445 0.749496V43.4702C7.17841 43.3005 12.6794 43.6964 18.0273 43.4702C19.4646 43.4136 21.2792 43.2843 22.6924 43.0581C23.9049 42.8642 25.0692 42.4927 26.1934 42.0161C26.8518 42.0161 26.7879 43.6968 26.3623 44.02H0V0.749496ZM141.471 0.709457C134.838 0.959895 128.872 4.89373 125.491 10.5083C120.015 19.5888 121.636 31.9337 129.666 38.9057L158.333 10.1938C155.611 3.46429 148.392 0.45106 141.471 0.709457ZM83.6152 0.636215C85.4538 -0.0583805 85.0041 0.999877 85.3975 2.14696C85.7427 3.15667 86.2165 4.02126 86.8828 4.8452C89.8619 8.50491 100.309 13.0701 104.79 15.9946C115.357 22.8939 108.901 33.9536 98.1172 34.7212C92.9058 35.1009 86.3053 32.7657 84.2256 27.563C83.9766 26.9408 83.0933 24.2509 83.832 24.0005C84.1373 23.9439 85.5256 23.8792 85.5264 24.2505L85.5342 24.2348C85.6224 25.1557 85.4138 26.2623 85.5342 27.1509C86.1926 32.0709 93.0103 34.2279 97.21 34.1714C103.409 34.0904 110.957 29.0737 107.97 22.0776C106.813 19.3793 104.677 18.2647 102.316 16.8266C97.8438 14.096 92.6651 11.6961 88.3691 8.812C85.647 6.99426 83.4065 4.06972 83.6152 0.636215ZM56.876 0.482895C57.0928 3.80321 59.2927 5.87115 61.9023 7.54344C66.391 10.4195 71.426 12.7947 75.9629 15.6304C88.5055 23.4749 79.3268 35.6902 67.1455 34.7046C61.5166 34.244 55.1253 30.2936 55.4385 23.9761H57.2373C57.3237 24.9196 57.1172 26.0548 57.2373 26.9731C58.1366 33.7269 68.4381 35.1007 73.6416 33.2671C80.3625 30.9 83.1654 23.4995 76.9746 18.6118C72.51 15.0894 65.3956 12.2452 60.4492 8.99754C57.5263 7.08286 55.1336 4.19916 55.4307 0.482895H56.876ZM57.2529 23.9761H57.2373C57.2371 23.9735 57.2375 23.9708 57.2373 23.9682L57.2529 23.9761ZM165.608 21.9722H177.838C182.423 21.9719 186.293 16.3258 186.454 12.0522C186.631 7.41507 182.921 1.01634 177.838 1.0161H165.608V21.9722ZM50.9482 0.77684L50.9414 0.781723L50.9492 0.773911L50.9482 0.77684Z" fill="white"/>
</g>
<defs>
<clipPath id="clip0_7_314">
<rect width="193.61" height="64.5368" fill="white"/>
</clipPath>
</defs>
</svg>
